<?xml version="1.0" encoding="utf-8"?>
<!-- Generator: Adobe Illustrator 15.0.0, SVG Export Plug-In . SVG Version: 6.00 Build 0)  -->
<!DOCTYPE svg PUBLIC "-//W3C//DTD SVG 1.1//EN" "http://www.w3.org/Graphics/SVG/1.1/DTD/svg11.dtd">
<svg version="1.1" id="camera" xmlns="http://www.w3.org/2000/svg" xmlns:xlink="http://www.w3.org/1999/xlink" x="0px" y="0px"
	 width="119px" height="195.988px" viewBox="0 0 119 195.988" enable-background="new 0 0 119 195.988" xml:space="preserve">
<g>
	<g>
		<path fill="#6C7988" d="M54.345,96.152H42.468c-1.411,0-2.558-1.147-2.558-2.56v-3.148c0-1.41,1.146-2.56,2.558-2.56h11.877
			c1.412,0,2.559,1.148,2.559,2.56v3.148C56.904,95.003,55.757,96.152,54.345,96.152z M42.468,88.802
			c-0.904,0-1.64,0.736-1.64,1.641v3.149c0,0.904,0.736,1.641,1.64,1.641h11.877c0.904,0,1.642-0.735,1.642-1.641v-3.149
			c0-0.904-0.737-1.641-1.642-1.641H42.468z"/>
	</g>
</g>
<g>
	<g>
		<path fill="#6C7988" d="M51.572,100.286H44.78c-0.882,0-1.602-0.683-1.653-1.559h-0.002l0.005-0.1
			c0.067-0.894,0.78-1.558,1.65-1.558h6.792c0.883,0,1.603,0.683,1.655,1.558h0.002l-0.005,0.1
			C53.156,99.621,52.443,100.286,51.572,100.286z M44.043,98.697c0.016,0.359,0.34,0.67,0.737,0.67h6.792
			c0.398,0,0.722-0.311,0.738-0.708c-0.017-0.36-0.34-0.67-0.738-0.67H44.78C44.384,97.989,44.059,98.299,44.043,98.697z"/>
	</g>
</g>
<g>
	<rect x="42.206" y="43.329" fill="#6C7988" width="13.78" height="2.297"/>
</g>
<g>
	<rect x="95.029" y="141.626" fill="#6C7988" width="11.021" height="1.838"/>
</g>
<g>
	<g>
		<path fill="#6C7988" d="M21.235,174.236h-3.533c-1.685,0-3.056-1.368-3.056-3.058V160.3c0-1.686,1.371-3.055,3.056-3.055h3.533
			c1.686,0,3.057,1.366,3.057,3.055v10.883C24.292,172.868,22.921,174.236,21.235,174.236z M17.701,158.161
			c-1.178,0-2.136,0.961-2.136,2.139v10.883c0,1.18,0.958,2.139,2.136,2.139h3.534c1.179,0,2.138-0.959,2.138-2.139V160.3
			c0-1.178-0.959-2.139-2.138-2.139H17.701z"/>
	</g>
</g>
<g>
	<circle fill="#6C7988" cx="25.985" cy="142.86" r="1.693"/>
</g>
<g>
	<circle fill="#6C7988" cx="72.838" cy="150.669" r="1.695"/>
</g>
<g>
	<circle fill="#6C7988" cx="79.268" cy="150.669" r="1.695"/>
</g>
<g>
	<circle fill="#6C7988" cx="85.697" cy="150.669" r="1.695"/>
</g>
<g>
	<circle fill="#6C7988" cx="95.512" cy="150.836" r="0.941"/>
</g>
<g>
	<circle fill="#6C7988" cx="22.771" cy="147.913" r="1.692"/>
</g>
<g>
	<circle fill="#6C7988" cx="25.985" cy="152.966" r="1.693"/>
</g>
<g>
	<g>
		<path fill="#6C7988" d="M101.419,174.236H73.021c-1.035,0-1.877-0.842-1.877-1.877V159.12c0-1.035,0.842-1.877,1.877-1.877h28.396
			c1.035,0,1.878,0.842,1.878,1.877v13.239C103.297,173.396,102.454,174.236,101.419,174.236z M73.021,158.161
			c-0.529,0-0.959,0.432-0.959,0.961v13.237c0,0.529,0.43,0.959,0.959,0.959h28.396c0.526,0,0.959-0.43,0.959-0.959v-13.237
			c0-0.529-0.433-0.961-0.959-0.961H73.021z"/>
	</g>
</g>
<g>
	<g>
		<path fill="#6C7988" d="M100.54,138.411c-3.292,0-5.972-2.681-5.972-5.974c0-3.291,2.68-5.973,5.972-5.973
			c3.293,0,5.974,2.682,5.974,5.973C106.514,135.73,103.833,138.411,100.54,138.411z M100.54,127.385
			c-2.786,0-5.052,2.27-5.052,5.055c0,2.787,2.267,5.054,5.052,5.054c2.787,0,5.053-2.269,5.053-5.054
			C105.594,129.652,103.327,127.385,100.54,127.385z"/>
	</g>
</g>
<g>
	<g>
		<path fill="#6C7988" d="M87.093,138.249c-0.716,0-1.388-0.281-1.893-0.785l-4.552-4.551l3.789-3.789l0.323,0.324
			c0,0,4.177,4.18,4.226,4.227c1.043,1.047,1.043,2.744,0,3.789C88.48,137.971,87.809,138.249,87.093,138.249z M81.947,132.913
			l3.871,3.871c0.363,0.36,0.804,0.545,1.271,0.545c0.473,0,0.912-0.185,1.244-0.517c0.688-0.688,0.688-1.805,0-2.487
			c-0.006-0.005-1.313-1.318-3.896-3.904L81.947,132.913z"/>
	</g>
</g>
<g>
	<circle fill="#6C7988" cx="87.064" cy="135.559" r="1.19"/>
</g>
<g>
	<g>
		<path fill="#6C7988" d="M53.237,176.075h-10.58c-1.009,0-1.829-0.82-1.829-1.828v-10.58c0-1.01,0.82-1.83,1.829-1.83h10.579
			c1.01,0,1.83,0.82,1.83,1.83v10.58C55.066,175.255,54.246,176.075,53.237,176.075z M42.657,162.755
			c-0.503,0-0.911,0.41-0.911,0.912v10.58c0,0.502,0.408,0.91,0.911,0.91h10.579c0.503,0,0.911-0.408,0.911-0.91v-10.58
			c0-0.504-0.408-0.912-0.911-0.912H42.657z"/>
	</g>
</g>
<g>
	<path fill="#6C7988" d="M48.095,165.581c-1.065,1.242-2.55,2.662-2.55,3.981c0,0.777,0.536,1.478,0.795,1.904v2.313h3.215v-2.31
		c0.459-0.438,0.938-1.13,0.938-1.907C50.493,168.243,49.101,166.766,48.095,165.581z M48.025,170.501
		c-0.616,0-1.117-0.5-1.117-1.117c0-0.615,0.501-1.117,1.117-1.117c0.617,0,1.117,0.502,1.117,1.117
		C49.145,170.001,48.643,170.501,48.025,170.501z"/>
</g>
<g>
	<circle fill="#6C7988" cx="47.98" cy="163.917" r="0.703"/>
</g>
<g>
	<g opacity="0.2" enable-background="new    ">
		<polygon fill="#6C7988" points="27.967,133.357 27.967,129.753 27.119,129.755 24.752,126.009 67.01,126.009 67.01,125.089 
			25.67,125.089 25.67,120.497 22.454,120.497 22.454,127.846 24.752,132.509 24.752,132.509 24.752,133.357 		"/>
	</g>
	<g opacity="0.2" enable-background="new    ">
		<path fill="#6C7988" d="M48.407,188.677c-7.579,0.063-18.638,2.559-19.81,2.559c-1.173,0-2.468-0.95-2.468-2.123v-4.77h-4.46
			c-6.924,0-13.454-6.529-13.454-13.451v-25.916c0-2.598,0.918-4.877,2.429-6.717C7.313,140.279,5,143.607,5,147.73v25.912
			c0,6.926,6.531,13.457,13.454,13.457h4.46v6.767c0,1.172,1.295,2.122,2.468,2.122c1.173,0,12.231-2.495,19.81-2.555
			c7.58-0.059,19.235,2.555,19.235,2.555c1.173,0,1.664-2.95,1.664-4.122v-0.962C62.669,190.206,54.304,188.634,48.407,188.677z"/>
	</g>
	<g opacity="0.2" enable-background="new    ">
		<path fill="#6C7988" d="M28.426,18.677c0,0,1.071-3.903,1.914-9.34c0.073-0.466,0.188-0.879,0.334-1.251
			c-1.586,0.431-3.161,1.502-3.55,4.008c-0.842,5.437-1.915,9.34-1.915,9.34s-0.063,0.388-0.23,0.91
			C27.728,22.855,28.426,18.677,28.426,18.677z"/>
	</g>
	<g opacity="0.2" enable-background="new    ">
		<path fill="#6C7988" d="M101.785,184.346H69.307v2.756H98.57c3.463,0,6.367-1.637,8.406-4.135
			C105.451,183.841,103.705,184.346,101.785,184.346z"/>
	</g>
	<g opacity="0.2" enable-background="new    ">
		<path fill="#6C7988" d="M21.708,48.101c0,0,0.797,2.725,3.044,3.647v5.359h-2.298v53.973l3.216,3.442v3.216h3.215v-5.972
			l-3.215-3.442V54.353h2.298v-5.359c-2.247-0.923-3.044-3.646-3.044-3.646s-6.144-17.506-7.579-20.95
			c-0.516-1.238-0.828-2.217-0.96-3.014c-0.647-0.327-1.529-0.578-2.256-0.073c-1.32,0.918-1.436,2.396,0,5.842
			S21.708,48.101,21.708,48.101z"/>
	</g>
</g>
<path fill="#6C7988" d="M101.785,120.693H90.566c-5.813,0-8.713,3.591-11.274,6.757c-2.054,2.536-3.825,4.729-6.771,4.729h-2.955
	v-3.134l1.436-2.774h0.402v-9.709h-2.756v-4.379l2.756-3.445V53.173h-3.479v-2.693H68.5c4.122,0,5.563-4.276,5.716-4.772
	c0.273-0.77,6.166-17.327,7.55-20.643c1.086-2.605,2.02-5.813-0.418-7.507c-0.479-0.333-1.027-0.503-1.634-0.503
	c-1.491,0-2.813,1.078-2.938,1.182c0,0-0.854,0.682-2.842,2.33c-0.51,0.341-0.967,0.521-1.324,0.521
	c-1.146,0-1.756-2.231-1.854-2.828l-0.031-0.14c-0.012-0.036-1.061-3.663-1.879-8.961c-0.521-3.349-3.01-5.27-6.826-5.27
	c-0.818,0-1.455,0.091-1.722,0.136H37.719c-0.265-0.045-0.9-0.136-1.719-0.136c-3.818,0-6.306,1.921-6.825,5.27
	c-0.82,5.298-1.874,9.17-1.886,9.208l-0.025,0.114c-0.099,0.578-0.701,2.731-1.829,2.731c-0.364,0-0.83-0.183-1.353-0.531
	c-1.94-1.608-2.798-2.351-2.81-2.361c-0.147-0.126-1.479-1.233-2.982-1.233c-0.599,0-1.143,0.168-1.618,0.499
	c-2.215,1.541-1.768,4.019-0.415,7.265c1.381,3.315,7.283,20.114,7.546,20.861c0.128,0.414,1.219,3.654,4.164,4.54v2.922H24.49
	v55.617l3.216,3.442v4.328H24.49v9.709h0.426l1.87,2.959v2.947H21.67c-7.193,0-14.634,4.785-14.634,12.799v25.914
	c0,7.521,7.111,14.635,14.634,14.635h3.28v3.586c0,1.947,1.922,3.304,3.647,3.304c0.423,0,1.275-0.148,3.337-0.519
	c4.179-0.746,11.175-1.996,16.48-2.037h0.243c7.362,0,18.612,2.5,18.726,2.525l0.258,0.027c1.729,0,2.844-1.298,2.844-3.304v-3.586
	h31.304c8.01,0,12.796-7.44,12.796-14.636V133.49C114.582,125.956,109.318,120.693,101.785,120.693z M68.518,55.533h0.526v15.815
	h-0.526V55.533z M68.518,76.401h0.526v7.548h-0.526V76.401z M26.058,45.017l-0.02-0.062c-0.252-0.716-6.172-17.576-7.604-21.013
	c-1.521-3.651-0.856-4.114-0.415-4.421c0.053-0.038,0.128-0.076,0.27-0.076c0.498,0,1.19,0.448,1.441,0.66
	c0.035,0.031,0.894,0.773,2.891,2.429l0.088,0.066c0.945,0.644,1.863,0.971,2.726,0.971c2.631,0,3.837-2.887,4.146-4.639
	c0.141-0.522,1.128-4.266,1.926-9.414c0.336-2.17,1.848-3.271,4.492-3.271c0.797,0,1.379,0.112,1.382,0.113l0.115,0.022h22.912
	l0.23-0.022c0.008-0.001,0.586-0.114,1.383-0.114c2.646,0,4.158,1.101,4.494,3.271c0.793,5.111,1.771,8.646,1.928,9.19
	c0.312,1.794,1.522,4.735,4.172,4.735c0.855,0,1.764-0.323,2.697-0.96l0.088-0.065c1.99-1.649,2.849-2.336,2.879-2.36
	c0.238-0.202,0.934-0.646,1.438-0.646c0.15,0,0.231,0.043,0.285,0.08c0.324,0.226,1.186,0.824-0.413,4.663
	c-1.433,3.435-7.353,20.08-7.604,20.787l-0.02,0.062c-0.038,0.127-0.96,3.115-3.463,3.115H29.519
	C27.016,48.121,26.095,45.14,26.058,45.017z M64.384,71.348V55.533h2.954v15.815H64.384z M67.338,76.401v7.548h-2.954v-7.548H67.338
	z M60.12,71.348V55.533h3.084v15.815H60.12z M63.204,76.401v7.548H60.12v-7.548H63.204z M55.986,71.348V55.533H59.2v15.815H55.986z
	 M59.2,76.401v7.548h-3.214v-7.548H59.2z M50.703,74.104c-0.126,0-0.229-0.087-0.229-0.196V73.84c0-0.106,0.103-0.195,0.229-0.195
	h4.594c0.127,0,0.229,0.087,0.229,0.195v0.068c0,0.108-0.103,0.196-0.229,0.196H50.703z M55.066,76.401v7.548h-3.674v-7.548H55.066z
	 M51.393,71.348V55.533h3.674v15.815H51.393z M38.76,74.104c-0.126,0-0.229-0.087-0.229-0.196V73.84
	c0-0.106,0.103-0.195,0.229-0.195h4.594c0.127,0,0.229,0.087,0.229,0.195v0.068c0,0.108-0.103,0.196-0.229,0.196H38.76z
	 M41.286,76.401v7.548h-3.215v-7.548H41.286z M38.071,71.348V55.533h3.215v15.815H38.071z M42.206,71.348V55.533h4.134v15.815
	H42.206z M42.206,76.401h4.134v7.548h-4.134V76.401z M44.731,74.104c-0.126,0-0.229-0.087-0.229-0.196V73.84
	c0-0.106,0.103-0.195,0.229-0.195h4.594c0.126,0,0.229,0.087,0.229,0.195v0.068c0,0.108-0.104,0.196-0.229,0.196H44.731z
	 M47.258,76.401h3.217v7.548h-3.217V76.401z M47.258,71.348V55.533h3.217v15.815H47.258z M33.149,71.348V55.533h4.003v15.815H33.149
	z M37.152,76.401v7.548h-4.003v-7.548H37.152z M29.016,71.348V55.533h2.955v15.815H29.016z M31.971,76.401v7.548h-2.955v-7.548
	H31.971z M26.85,55.533h0.986v15.815H26.85V55.533z M26.85,76.401h0.986v7.548H26.85V76.401z M26.85,86.308h42.194v21.327H26.85
	V86.308z M27.498,108.555h41.031l-1.627,2.035H29.398L27.498,108.555z M66.289,112.95v3.61H30.065v-3.61H66.289z M26.85,118.921
	h0.856h40.942h0.396v4.988H26.85V118.921z M29.146,130.864h38.063v1.313H29.146V130.864z M25.088,183.165H24.95h-3.28
	c-6.31,0-12.275-5.965-12.275-12.273v-25.914c0-6.447,6.372-10.438,12.275-10.438h5.116h4.854v35.105
	C31.641,178.813,27.804,182.032,25.088,183.165z M67.742,190.048c-1.463-0.32-11.855-2.549-19.084-2.549h-0.261
	c-5.507,0.043-12.625,1.313-16.878,2.074c-1.303,0.231-2.649,0.473-2.922,0.479c-0.591,0-1.289-0.513-1.289-0.942v-3.586h40.817
	v3.586C68.126,189.876,67.904,190.021,67.742,190.048z M26.931,183.165c2.702-1.748,5.63-5.494,5.63-13.521v-35.106h30.774v35.106
	c0,8.023,2.927,11.771,5.629,13.521H26.931z M112.223,170.891c0,5.9-3.99,12.273-10.437,12.273H70.902
	c-2.717-1.136-6.647-4.357-6.647-13.521v-35.106h5.312h2.955c4.07,0,6.375-2.851,8.604-5.604c2.446-3.021,4.757-5.882,9.44-5.882
	h11.219c6.242,0,10.438,4.195,10.438,10.438V170.891z"/>
</svg>
