<?xml version="1.0" encoding="utf-8"?>
<!-- Generator: Adobe Illustrator 15.0.0, SVG Export Plug-In . SVG Version: 6.00 Build 0)  -->
<!DOCTYPE svg PUBLIC "-//W3C//DTD SVG 1.1//EN" "http://www.w3.org/Graphics/SVG/1.1/DTD/svg11.dtd">
<svg version="1.1" id="camera" xmlns="http://www.w3.org/2000/svg" xmlns:xlink="http://www.w3.org/1999/xlink" x="0px" y="0px"
	 width="257.334px" height="195.988px" viewBox="0 0 257.334 195.988" enable-background="new 0 0 257.334 195.988"
	 xml:space="preserve">
<g>
	<g>
		<path fill="#6C7988" d="M51.764,95.103H39.886c-1.41,0-2.558-1.147-2.558-2.562v-3.146c0-1.41,1.146-2.562,2.558-2.562h11.878
			c1.411,0,2.559,1.148,2.559,2.562v3.146C54.323,93.954,53.175,95.103,51.764,95.103z M39.886,87.755
			c-0.903,0-1.64,0.735-1.64,1.642v3.147c0,0.904,0.736,1.643,1.64,1.643h11.878c0.903,0,1.641-0.735,1.641-1.643v-3.147
			c0-0.904-0.736-1.642-1.641-1.642H39.886z"/>
	</g>
</g>
<g>
	<g>
		<path fill="#6C7988" d="M48.991,99.237h-6.793c-0.881,0-1.601-0.683-1.652-1.56h-0.002l0.005-0.101
			c0.067-0.894,0.78-1.558,1.649-1.558h6.793c0.883,0,1.603,0.683,1.654,1.558h0.002l-0.004,0.101
			C50.575,98.572,49.862,99.237,48.991,99.237z M41.461,97.648c0.016,0.357,0.34,0.67,0.736,0.67h6.793
			c0.398,0,0.722-0.313,0.738-0.708c-0.018-0.36-0.34-0.67-0.738-0.67h-6.793C41.802,96.94,41.477,97.25,41.461,97.648z"/>
	</g>
</g>
<g>
	<rect x="39.625" y="42.28" fill="#6C7988" width="13.78" height="2.297"/>
</g>
<g>
	<rect x="92.447" y="140.577" fill="#6C7988" width="11.021" height="1.838"/>
</g>
<g>
	<g>
		<path fill="#6C7988" d="M18.654,173.187h-3.533c-1.685,0-3.056-1.368-3.056-3.059v-10.88c0-1.686,1.371-3.055,3.056-3.055h3.533
			c1.686,0,3.057,1.366,3.057,3.055v10.883C21.71,171.819,20.339,173.187,18.654,173.187z M15.12,157.112
			c-1.178,0-2.136,0.961-2.136,2.139v10.883c0,1.182,0.958,2.141,2.136,2.141h3.534c1.179,0,2.138-0.959,2.138-2.141v-10.883
			c0-1.178-0.959-2.139-2.138-2.139H15.12z"/>
	</g>
</g>
<g>
	<circle fill="#6C7988" cx="23.404" cy="141.811" r="1.693"/>
</g>
<g>
	<circle fill="#6C7988" cx="70.256" cy="149.62" r="1.695"/>
</g>
<g>
	<circle fill="#6C7988" cx="76.686" cy="149.62" r="1.695"/>
</g>
<g>
	<circle fill="#6C7988" cx="83.115" cy="149.62" r="1.695"/>
</g>
<g>
	<circle fill="#6C7988" cx="92.93" cy="149.787" r="0.941"/>
</g>
<g>
	<circle fill="#6C7988" cx="20.19" cy="146.865" r="1.692"/>
</g>
<g>
	<circle fill="#6C7988" cx="23.404" cy="151.917" r="1.693"/>
</g>
<g>
	<g>
		<path fill="#6C7988" d="M98.838,173.187H70.439c-1.035,0-1.877-0.843-1.877-1.877v-13.239c0-1.035,0.842-1.877,1.877-1.877h28.396
			c1.035,0,1.877,0.842,1.877,1.877v13.239C100.715,172.347,99.873,173.187,98.838,173.187z M70.439,157.112
			c-0.529,0-0.959,0.432-0.959,0.961v13.237c0,0.527,0.43,0.959,0.959,0.959h28.396c0.525,0,0.959-0.432,0.959-0.959v-13.237
			c0-0.529-0.434-0.961-0.959-0.961H70.439z"/>
	</g>
</g>
<g>
	<g>
		<path fill="#6C7988" d="M97.959,137.362c-3.293,0-5.973-2.681-5.973-5.974c0-3.291,2.68-5.975,5.973-5.975
			s5.973,2.684,5.973,5.975C103.932,134.681,101.252,137.362,97.959,137.362z M97.959,126.337c-2.787,0-5.053,2.271-5.053,5.057
			c0,2.787,2.268,5.054,5.053,5.054c2.787,0,5.053-2.271,5.053-5.054C103.012,128.603,100.746,126.337,97.959,126.337z"/>
	</g>
</g>
<g>
	<g>
		<path fill="#6C7988" d="M84.512,137.2c-0.717,0-1.389-0.281-1.893-0.785l-4.553-4.551l3.789-3.789l0.324,0.324
			c0,0,4.176,4.18,4.225,4.227c1.043,1.047,1.043,2.744,0,3.789C85.898,136.923,85.227,137.2,84.512,137.2z M79.365,131.864
			l3.871,3.871c0.363,0.359,0.805,0.545,1.271,0.545c0.473,0,0.912-0.186,1.244-0.517c0.688-0.688,0.688-1.807,0-2.487
			c-0.006-0.005-1.313-1.318-3.896-3.904L79.365,131.864z"/>
	</g>
</g>
<g>
	<circle fill="#6C7988" cx="84.482" cy="134.51" r="1.19"/>
</g>
<g>
	<g>
		<path fill="#6C7988" d="M50.656,175.026h-10.58c-1.009,0-1.829-0.82-1.829-1.828v-10.58c0-1.01,0.82-1.83,1.829-1.83h10.579
			c1.01,0,1.83,0.82,1.83,1.83v10.58C52.485,174.206,51.665,175.026,50.656,175.026z M40.076,161.706
			c-0.503,0-0.911,0.41-0.911,0.912v10.58c0,0.502,0.408,0.91,0.911,0.91h10.579c0.503,0,0.911-0.408,0.911-0.91v-10.58
			c0-0.504-0.408-0.912-0.911-0.912H40.076z"/>
	</g>
</g>
<g>
	<path fill="#6C7988" d="M45.514,164.532c-1.065,1.242-2.551,2.662-2.551,3.981c0,0.775,0.536,1.478,0.795,1.902v2.313h3.216v-2.312
		c0.459-0.438,0.938-1.13,0.938-1.906C47.912,167.194,46.52,165.718,45.514,164.532z M45.444,169.452
		c-0.616,0-1.117-0.5-1.117-1.117c0-0.615,0.501-1.117,1.117-1.117c0.617,0,1.117,0.502,1.117,1.117
		C46.564,168.952,46.062,169.452,45.444,169.452z"/>
</g>
<g>
	<circle fill="#6C7988" cx="45.399" cy="162.868" r="0.703"/>
</g>
<g>
	<g opacity="0.2" enable-background="new    ">
		<polygon fill="#6C7988" points="25.385,132.308 25.385,128.704 24.538,128.706 22.17,124.96 64.428,124.96 64.428,124.04 
			23.088,124.04 23.088,119.448 19.873,119.448 19.873,126.798 22.17,131.46 22.17,131.46 22.17,132.308 		"/>
	</g>
	<g opacity="0.2" enable-background="new    ">
		<path fill="#6C7988" d="M45.826,187.628c-7.579,0.063-18.638,2.561-19.81,2.561c-1.174,0-2.469-0.95-2.469-2.123v-4.771h-4.46
			c-6.924,0-13.454-6.527-13.454-13.451v-25.916c0-2.598,0.918-4.877,2.43-6.717c-3.331,2.021-5.645,5.351-5.645,9.474v25.91
			c0,6.928,6.531,13.457,13.454,13.457h4.46v6.769c0,1.172,1.295,2.122,2.468,2.122c1.174,0,12.231-2.495,19.811-2.557
			c7.58-0.059,19.235,2.557,19.235,2.557c1.172,0,1.664-2.95,1.664-4.122v-0.962C60.088,189.157,51.723,187.585,45.826,187.628z"/>
	</g>
	<g opacity="0.2" enable-background="new    ">
		<path fill="#6C7988" d="M25.844,17.63c0,0,1.071-3.902,1.914-9.341c0.073-0.466,0.188-0.879,0.334-1.251
			c-1.586,0.431-3.161,1.502-3.55,4.009c-0.842,5.438-1.915,9.339-1.915,9.339s-0.063,0.39-0.23,0.911
			C25.146,21.806,25.844,17.63,25.844,17.63z"/>
	</g>
	<g opacity="0.2" enable-background="new    ">
		<path fill="#6C7988" d="M99.203,183.298H66.725v2.758h29.264c3.463,0,6.367-1.639,8.406-4.137
			C102.869,182.792,101.123,183.298,99.203,183.298z"/>
	</g>
	<g opacity="0.2" enable-background="new    ">
		<path fill="#6C7988" d="M19.126,47.052c0,0,0.797,2.727,3.044,3.647v5.359h-2.298v53.973l3.216,3.442v3.216h3.215v-5.974
			l-3.215-3.44V53.304h2.298v-5.359c-2.247-0.923-3.044-3.646-3.044-3.646s-6.145-17.506-7.579-20.948
			c-0.516-1.238-0.828-2.219-0.96-3.016c-0.647-0.327-1.529-0.578-2.256-0.071c-1.32,0.918-1.437,2.396,0,5.842
			C12.983,29.549,19.126,47.052,19.126,47.052z"/>
	</g>
</g>
<path fill="#6C7988" d="M99.203,119.644H87.984c-5.813,0-8.713,3.591-11.273,6.757c-2.055,2.536-3.826,4.729-6.771,4.729h-2.955
	v-3.134l1.436-2.772h0.402v-9.709h-2.756v-4.381l2.756-3.443V52.124h-3.479V49.43h0.574c4.123,0,5.563-4.276,5.717-4.772
	c0.271-0.77,6.166-17.327,7.549-20.643c1.086-2.605,2.02-5.813-0.418-7.509c-0.479-0.333-1.027-0.503-1.633-0.503
	c-1.492,0-2.814,1.078-2.939,1.184c0,0-0.854,0.682-2.842,2.33c-0.51,0.341-0.967,0.521-1.324,0.521
	c-1.145,0-1.756-2.229-1.854-2.828l-0.031-0.14c-0.012-0.036-1.061-3.663-1.879-8.961c-0.52-3.351-3.01-5.271-6.826-5.271
	c-0.818,0-1.455,0.093-1.722,0.138H35.137c-0.265-0.045-0.9-0.138-1.719-0.138c-3.818,0-6.307,1.921-6.825,5.271
	c-0.82,5.298-1.874,9.17-1.886,9.208l-0.025,0.114c-0.099,0.576-0.701,2.729-1.829,2.729c-0.364,0-0.83-0.183-1.353-0.531
	c-1.94-1.606-2.798-2.351-2.811-2.359c-0.146-0.126-1.479-1.233-2.981-1.233c-0.6,0-1.144,0.168-1.618,0.499
	c-2.215,1.541-1.769,4.021-0.415,7.265c1.381,3.315,7.283,20.114,7.546,20.861c0.128,0.414,1.219,3.654,4.164,4.54v2.922h-3.477
	v55.617l3.216,3.442v4.326h-3.216v9.711h0.426l1.87,2.959v2.945h-5.116c-7.192,0-14.634,4.785-14.634,12.799v25.914
	c0,7.521,7.111,14.637,14.634,14.637h3.28v3.586c0,1.945,1.922,3.304,3.647,3.304c0.423,0,1.274-0.148,3.337-0.519
	c4.179-0.746,11.175-1.996,16.479-2.037h0.243c7.362,0,18.612,2.5,18.725,2.523l0.258,0.027c1.73,0,2.844-1.298,2.844-3.304v-3.588
	h31.305c8.009,0,12.795-7.438,12.795-14.636v-37.395C112,124.907,106.736,119.644,99.203,119.644z M65.936,54.484h0.527V70.3h-0.527
	V54.484z M65.936,75.352h0.527V82.9h-0.527V75.352z M23.476,43.969l-0.02-0.062c-0.252-0.716-6.172-17.576-7.604-21.013
	c-1.521-3.651-0.855-4.114-0.415-4.421c0.053-0.038,0.128-0.076,0.271-0.076c0.498,0,1.189,0.447,1.44,0.66
	c0.035,0.029,0.895,0.771,2.892,2.429l0.088,0.064c0.944,0.646,1.862,0.973,2.726,0.973c2.631,0,3.837-2.889,4.146-4.641
	c0.141-0.521,1.128-4.266,1.926-9.413c0.336-2.171,1.848-3.271,4.492-3.271c0.797,0,1.379,0.112,1.382,0.113l0.115,0.021h22.912
	l0.23-0.021c0.008-0.001,0.586-0.114,1.383-0.114c2.646,0,4.158,1.101,4.494,3.271c0.793,5.111,1.771,8.646,1.928,9.19
	c0.313,1.794,1.523,4.735,4.172,4.735c0.855,0,1.764-0.323,2.697-0.96l0.088-0.065c1.99-1.647,2.85-2.336,2.879-2.36
	c0.238-0.2,0.934-0.646,1.438-0.646c0.15,0,0.232,0.043,0.285,0.08c0.324,0.226,1.186,0.824-0.412,4.663
	c-1.434,3.435-7.354,20.08-7.605,20.787l-0.02,0.062c-0.037,0.127-0.959,3.115-3.463,3.115H26.938
	C24.434,47.072,23.513,44.092,23.476,43.969z M61.803,70.3V54.484h2.953V70.3H61.803z M64.756,75.352V82.9h-2.953v-7.548H64.756z
	 M57.539,70.3V54.484h3.084V70.3H57.539z M60.623,75.352V82.9h-3.084v-7.548H60.623z M53.405,70.3V54.484h3.214V70.3H53.405z
	 M56.619,75.352V82.9h-3.214v-7.548H56.619z M48.122,73.055c-0.126,0-0.229-0.089-0.229-0.196v-0.068
	c0-0.104,0.103-0.193,0.229-0.193h4.594c0.127,0,0.229,0.087,0.229,0.193v0.068c0,0.106-0.103,0.196-0.229,0.196H48.122z
	 M52.485,75.352V82.9h-3.674v-7.548H52.485z M48.811,70.3V54.484h3.674V70.3H48.811z M36.178,73.055
	c-0.126,0-0.229-0.089-0.229-0.196v-0.068c0-0.104,0.103-0.193,0.229-0.193h4.594c0.127,0,0.229,0.087,0.229,0.193v0.068
	c0,0.106-0.103,0.196-0.229,0.196H36.178z M38.705,75.352V82.9H35.49l-0.001-7.548H38.705z M35.489,70.3V54.484h3.216V70.3H35.489z
	 M39.625,70.3V54.484h4.134V70.3H39.625z M39.625,75.352h4.134V82.9h-4.134V75.352z M42.149,73.055
	c-0.125,0-0.229-0.089-0.229-0.196v-0.068c0-0.104,0.104-0.193,0.229-0.193h4.595c0.126,0,0.229,0.087,0.229,0.193v0.068
	c0,0.106-0.104,0.196-0.229,0.196H42.149z M44.676,75.352h3.217V82.9h-3.217V75.352z M44.676,70.3V54.484h3.217V70.3H44.676z
	 M30.567,70.3V54.484h4.004V70.3H30.567z M34.571,75.352V82.9h-4.003l-0.001-7.548H34.571z M26.434,70.3V54.484h2.955V70.3H26.434z
	 M29.389,75.352L29.39,82.9h-2.955l-0.001-7.548H29.389z M24.268,54.484h0.986V70.3h-0.986V54.484z M24.269,75.352h0.985V82.9
	h-0.985V75.352z M24.269,85.26h42.194v21.327H24.269V85.26z M24.917,107.507h41.031l-1.627,2.035H26.817L24.917,107.507z
	 M63.707,111.901v3.608H27.484v-3.608H63.707z M24.269,117.872h0.855h40.942h0.396v4.988H24.269V117.872z M26.565,129.815h38.062
	v1.313H26.565V129.815z M22.506,182.116h-0.138h-3.28c-6.31,0-12.274-5.965-12.274-12.273V143.93
	c0-6.447,6.372-10.438,12.274-10.438h5.116h4.854v35.105C29.06,177.764,25.223,180.983,22.506,182.116z M65.16,188.999
	c-1.463-0.318-11.854-2.549-19.083-2.549h-0.261c-5.507,0.043-12.625,1.313-16.878,2.074c-1.304,0.229-2.649,0.473-2.922,0.479
	c-0.592,0-1.289-0.514-1.289-0.941v-3.586h40.816v3.586C65.545,188.827,65.322,188.972,65.16,188.999z M24.35,182.116
	c2.701-1.748,5.63-5.494,5.63-13.521v-35.105h30.774v35.105c0,8.022,2.926,11.771,5.629,13.521H24.35z M109.641,169.843
	c0,5.9-3.99,12.273-10.436,12.273H68.32c-2.717-1.136-6.646-4.357-6.646-13.521v-35.105h5.311h2.955c4.07,0,6.375-2.851,8.605-5.604
	c2.445-3.021,4.756-5.881,9.439-5.881h11.219c6.242,0,10.438,4.194,10.438,10.438V169.843L109.641,169.843z"/>
<g>
	<rect x="199" y="48.494" fill="#6C7988" width="1" height="29"/>
</g>
<path fill="#6C7988" d="M255,27.494v-12h-13v12c-0.353,0-0.69,0-1,0v8.67c0,3.455,2.687,6.442,6,7.163v54.241
	c0,4.097-0.772,7.165-2.834,9.12c-2.312,2.191-5.226,2.457-5.831,2.465c0,0.001-0.197,0.013-0.283,0.013
	c-0.048-0.002-0.352,0-0.352,0c-0.605,0.001-1.385,0.025-3.809-0.089c-3.246-0.152-5.636-0.889-7.363-2.64
	c-2.67-2.708-2.528-6.685-2.528-6.749V73.036c0-3.818-1.231-7.05-3.435-9.185c-3.353-3.251-8.088-3.357-8.233-3.357H206V42.973
	c0-4.685-3.797-8.479-8.479-8.479H109.48c-4.684,0-8.48,3.796-8.48,8.479v48.041c0,4.683,3.797,8.479,8.48,8.479h88.039
	c4.686,0,8.48-3.796,8.48-8.479V63.494h6.372c0.034,0,3.706,0.176,6.119,2.537c1.577,1.542,2.509,4.051,2.509,7.006v26.62
	c0,0.213-0.199,5.396,3.359,9.03c2.319,2.368,6.482,3.359,9.561,3.504l2.225,0.085c1.703,0,6.84-0.408,9.979-3.355
	c2.712-2.549,3.879-6.369,3.879-11.352V43.363c3.365-0.646,6-3.678,6-7.199v-8.67C255.714,27.494,255.369,27.494,255,27.494z
	 M244,17.494h9v9h-9V17.494z M186,90.494h-69.888c-2.756,0-5.112-2.74-5.112-5.496V47.749c0-2.756,2.356-5.255,5.112-5.255H186
	V90.494z M186,41.494h-69.888c-3.424,0-6.112,2.831-6.112,6.255v37.249c0,3.424,2.688,6.496,6.112,6.496H186v5h-76.031
	c-3.345,0-5.969-2.712-5.969-6.057l0.002-47.234c0-3.345,3.278-5.708,6.623-5.708H186V41.494z M203,90.437
	c0,3.345-2.712,6.057-6.058,6.057H187v-5v-50v-4h9.942c3.346,0,6.058,1.712,6.058,5.057V90.437z"/>
<g>
	<rect x="246" y="20.494" fill="#6C7988" width="1" height="3"/>
</g>
<g>
	<rect x="250" y="20.494" fill="#6C7988" width="1" height="3"/>
</g>
<g opacity="0.2">
	<path fill="#6C7988" d="M243.188,28.494l0.125-12h-3.646v12c-0.354,0-0.691,0-1,0v8.67c0,3.455,2.688,6.442,6,7.163v54.242
		c0,4.097-0.771,7.164-2.834,9.119c-2.313,2.191-5.225,2.457-5.831,2.465c0,0.001-0.198,0.013-0.282,0.013
		c-0.049-0.002-0.353,0-0.353,0c-0.604,0.001-1.384,0.025-3.81-0.089c-3.244-0.152-5.635-0.889-7.361-2.64
		c-2.67-2.708-2.529-6.685-2.529-6.749V74.036c0-3.818-1.232-7.05-3.434-9.185c-3.354-3.251-8.088-3.357-8.234-3.357h-6.332v3h6.372
		c0.034,0,3.706,0.176,6.119,2.537c1.577,1.542,2.509,4.051,2.509,7.006v26.62c0,0.213-0.199,5.396,3.359,9.03
		c2.32,2.368,6.482,3.359,9.561,3.504l2.225,0.085c1.703,0,6.84-0.408,9.979-3.355c2.712-2.549,3.879-6.369,3.879-11.352V44.363
		c3.365-0.646,6-3.678,6-7.199v-8.67C253.381,28.494,243.558,28.494,243.188,28.494z"/>
</g>
<g opacity="0.2">
	<path fill="#6C7988" d="M197.112,99.494H109.75c-4.676,0-8.75-4.216-8.75-8.892l0.292-47.65c0-0.437,0.008-2.015,0.07-2.433
		C99.209,41.285,98,44.488,98,46.385v47.853c0,4.014,4.255,8.258,8.269,8.258h87.816c2.37,0,4.471-1.928,5.796-3.685
		C199.013,99.111,198.084,99.494,197.112,99.494z"/>
</g>
<g>
	<g>
		<path fill="#6C7988" d="M187.63,188.976c-19.156,0-34.74-15.585-34.74-34.741s15.584-34.741,34.74-34.741
			s34.741,15.585,34.741,34.741S206.786,188.976,187.63,188.976z M187.63,121.411c-18.1,0-32.824,14.725-32.824,32.824
			c0,18.099,14.727,32.824,32.824,32.824c18.1,0,32.824-14.727,32.824-32.824C220.454,136.135,205.729,121.411,187.63,121.411z
			 M187.71,166.614c-6.781,0-12.3-5.518-12.3-12.3c0-6.781,5.519-12.299,12.3-12.299s12.299,5.518,12.299,12.299
			C200.009,161.096,194.491,166.614,187.71,166.614z M187.71,143.932c-5.725,0-10.383,4.656-10.383,10.382
			s4.658,10.383,10.383,10.383s10.383-4.657,10.383-10.383C198.093,148.591,193.435,143.932,187.71,143.932z"/>
	</g>
</g>
<g>
	<path fill="#6C7988" d="M187.472,184.584c-16.646,0-30.188-13.542-30.188-30.188c0-16.646,13.543-30.189,30.188-30.189
		c16.646,0,30.188,13.543,30.188,30.189C217.659,171.042,204.117,184.584,187.472,184.584z M187.472,124.685
		c-16.384,0-29.711,13.326-29.711,29.71c0,16.382,13.327,29.71,29.711,29.71c16.381,0,29.709-13.328,29.709-29.71
		C217.181,138.011,203.853,124.685,187.472,124.685z"/>
</g>
<g>
	<path fill="#6C7988" d="M187.729,170.847c-9.215,0-16.711-7.496-16.711-16.713c0-9.214,7.496-16.71,16.711-16.71
		s16.711,7.496,16.711,16.71C204.438,163.351,196.942,170.847,187.729,170.847z M187.729,138.385
		c-8.688,0-15.752,7.066-15.752,15.754c0,8.686,7.064,15.752,15.752,15.752c8.686,0,15.752-7.066,15.752-15.752
		C203.481,145.451,196.414,138.385,187.729,138.385z"/>
</g>
<g>
	
		<rect x="162.635" y="134.722" transform="matrix(0.6523 0.758 -0.758 0.6523 162.0828 -82.91)" fill="#6C7988" width="17.542" height="0.958"/>
</g>
<g>
	
		<rect x="153.767" y="150.165" transform="matrix(0.9921 0.1258 -0.1258 0.9921 20.2441 -19.2614)" fill="#6C7988" width="17.698" height="0.959"/>
</g>
<g>
	
		<rect x="194.882" y="172.894" transform="matrix(0.6522 0.758 -0.758 0.6522 202.2416 -94.0797)" fill="#6C7988" width="17.542" height="0.958"/>
</g>
<g>
	
		<rect x="203.567" y="157.477" transform="matrix(0.9921 0.1257 -0.1257 0.9921 21.5472 -25.4555)" fill="#6C7988" width="17.7" height="0.96"/>
</g>
<g opacity="0.19">
	<path fill="#6C7988" d="M187.71,143.932c-3.137,0-5.951,1.398-7.855,3.604c1.338-0.556,2.805-0.862,4.343-0.862
		c6.264,0,11.341,5.077,11.341,11.343c0,1.33-0.229,2.604-0.65,3.791c1.975-1.894,3.207-4.552,3.207-7.494
		C198.093,148.591,193.435,143.932,187.71,143.932z"/>
</g>
<g opacity="0.2">
	<path fill="#6C7988" d="M187.63,188.976c-19.156,0-34.74-15.585-34.74-34.741c0-6.019,1.539-11.684,4.241-16.621
		c-4.266,5.655-6.798,12.693-6.798,20.323c0,18.657,15.125,33.78,33.783,33.78c8.267,0,15.836-2.974,21.707-7.901
		C200.528,187.085,194.297,188.976,187.63,188.976z"/>
</g>
</svg>
